# 3ds Max Wavefront OBJ Exporter v0.97b - (c)2007 guruware
# File Created: 14.11.2013 18:10:02

mtllib xiaoshi.mtl

#
# object Object097
#

v  4.3417 -0.0231 12.2253
v  4.2358 0.1503 12.2214
v  4.0552 -0.0230 12.1587
v  4.4591 0.1518 11.9580
v  4.4007 -0.0221 11.8881
v  4.1471 -0.0231 11.8654
v  4.1872 0.1196 11.8801
v  4.2892 0.1854 12.0618
v  4.4232 0.1109 12.1414
# 9 vertices

vn 0.4665 -0.0981 0.8791
vn -0.2171 0.6620 0.7174
vn -0.7902 0.5033 0.3497
vn 0.7849 0.5126 -0.3481
vn 0.6271 0.0795 -0.7749
vn -0.5407 0.3000 -0.7859
vn -0.3726 0.5881 -0.7178
vn -0.0653 0.9967 0.0475
vn 0.8244 0.3204 0.4666
# 9 vertex normals

vt 0.2596 0.5629 0.0000
vt 0.2513 0.6533 0.0000
vt 0.3041 0.7438 0.0000
vt 0.1223 0.6277 0.0000
vt 0.0700 0.6186 0.0000
vt 0.1165 0.7837 0.0000
vt 0.1394 0.7436 0.0000
vt 0.1885 0.6670 0.0000
vt 0.1949 0.6056 0.0000
# 9 texture coords

g Object097
usemtl Material__895
s 2
f 1/1/1 2/2/2 3/3/3 
f 4/4/4 5/5/5 6/6/6 7/7/7 
f 7/7/7 8/8/8 4/4/4 
f 2/2/2 9/9/9 4/4/4 8/8/8 
f 3/3/3 7/7/7 6/6/6 
f 2/2/2 8/8/8 7/7/7 3/3/3 
f 5/5/5 4/4/4 9/9/9 1/1/1 
f 9/9/9 2/2/2 1/1/1 
# 4 polygons - 4 triangles

#
# object Object098
#

v  4.5670 -0.0331 12.7398
v  4.3609 -0.0331 13.2162
v  4.5326 0.1657 13.2039
v  4.6408 0.2351 12.7946
v  5.0283 0.2172 12.8366
v  5.1755 0.1411 12.9895
v  4.4946 0.1188 13.5755
v  4.7672 0.0811 13.7375
v  4.4460 -0.0331 13.5950
v  4.8095 -0.0331 13.8452
v  5.2187 -0.0331 13.0011
v  4.9719 -0.0331 12.7268
# 12 vertices

vn -0.5500 0.4273 -0.7176
vn -0.7574 0.6504 -0.0575
vn -0.4564 0.8896 0.0186
vn -0.3645 0.7538 -0.5467
vn 0.4121 0.7860 -0.4609
vn 0.7823 0.6211 -0.0475
vn -0.5803 0.7231 0.3746
vn 0.1178 0.8100 0.5745
vn -0.7776 0.4347 0.4543
vn 0.1979 0.7102 0.6756
vn 0.9623 0.2606 -0.0783
vn 0.2989 0.3284 -0.8960
# 12 vertex normals

vt 0.5311 0.7276 0.0008
vt 0.3593 0.8058 0.0005
vt 0.3663 0.7354 0.8909
vt 0.4791 0.6857 0.6548
vt 0.4745 0.5897 0.5743
vt 0.4165 0.5541 0.7809
vt 0.2849 0.7126 0.6810
vt 0.2448 0.6339 0.6465
vt 0.2573 0.7434 0.0007
vt 0.2052 0.6177 0.0008
vt 0.4155 0.5143 0.0005
vt 0.5438 0.5828 0.0008
# 12 texture coords

g Object098
usemtl Material__895
s 2
f 10/10/10 11/11/11 12/12/12 13/13/13 
f 14/14/14 13/13/13 12/12/12 15/15/15 
f 15/15/15 12/12/12 16/16/16 17/17/17 
f 18/18/18 16/16/16 12/12/12 11/11/11 
f 18/18/18 19/19/19 17/17/17 16/16/16 
f 17/17/17 19/19/19 20/20/20 15/15/15 
f 15/15/15 20/20/20 21/21/21 14/14/14 
f 14/14/14 21/21/21 10/10/10 13/13/13 
# 8 polygons

#
# object Object099
#

v  3.4713 -0.0331 13.6023
v  4.1400 -0.0331 13.0928
v  4.0183 0.1657 12.9711
v  3.4644 0.2351 13.5106
v  3.3627 0.2172 12.8657
v  3.7737 0.1411 12.7786
v  4.2220 0.1188 12.7272
v  4.1659 0.0811 12.4150
v  4.2685 -0.0331 12.7512
v  4.2196 -0.0331 12.3126
v  3.7542 -0.0331 12.7384
v  3.3012 -0.0331 12.9037
# 12 vertices

vn -0.2301 0.4434 0.8663
vn 0.6022 0.6512 0.4617
vn 0.4060 0.8887 0.2129
vn -0.2863 0.6838 0.6712
vn -0.5824 0.6302 -0.5135
vn -0.1994 0.7534 -0.6266
vn 0.6742 0.7339 0.0826
vn 0.1449 0.7897 -0.5961
vn 0.8913 0.4191 0.1730
vn 0.2683 0.7101 -0.6510
vn -0.4963 0.2538 -0.8302
vn -0.8871 0.2061 -0.4129
# 12 vertex normals

vt 0.1943 0.6717 0.0008
vt 0.4152 0.5688 0.0005
vt 0.4270 0.6312 0.8909
vt 0.2646 0.6716 0.6548
vt 0.3676 0.7562 0.5743
vt 0.4376 0.7016 0.7809
vt 0.4951 0.6203 0.6810
vt 0.5516 0.6606 0.6465
vt 0.5069 0.5710 0.0007
vt 0.5947 0.6616 0.0008
vt 0.4601 0.7364 0.0005
vt 0.3555 0.8102 0.0008
# 12 texture coords

g Object099
usemtl Material__895
s 2
f 22/22/22 23/23/23 24/24/24 25/25/25 
f 26/26/26 25/25/25 24/24/24 27/27/27 
f 27/27/27 24/24/24 28/28/28 29/29/29 
f 30/30/30 28/28/28 24/24/24 23/23/23 
f 30/30/30 31/31/31 29/29/29 28/28/28 
f 29/29/29 31/31/31 32/32/32 27/27/27 
f 27/27/27 32/32/32 33/33/33 26/26/26 
f 26/26/26 33/33/33 22/22/22 25/25/25 
# 8 polygons

